<svg width="32" height="31" viewBox="0 0 32 31" fill="none" xmlns="http://www.w3.org/2000/svg">
<path d="M23.1038 8.39551H23.1168M9.54134 2.58301H22.458C26.0248 2.58301 28.9163 5.4745 28.9163 9.04134V21.958C28.9163 25.5248 26.0248 28.4163 22.458 28.4163H9.54134C5.9745 28.4163 3.08301 25.5248 3.08301 21.958V9.04134C3.08301 5.4745 5.9745 2.58301 9.54134 2.58301ZM21.1663 14.6859C21.3257 15.7609 21.1421 16.8588 20.6416 17.8234C20.1411 18.788 19.3492 19.5702 18.3784 20.0588C17.4077 20.5474 16.3077 20.7175 15.2347 20.5448C14.1618 20.3722 13.1706 19.8656 12.4022 19.0972C11.6337 18.3287 11.1272 17.3376 10.9545 16.2646C10.7819 15.1917 10.9519 14.0916 11.4405 13.1209C11.9291 12.1502 12.7113 11.3583 13.6759 10.8577C14.6406 10.3572 15.7384 10.1736 16.8134 10.333C17.9099 10.4956 18.9251 11.0066 19.7089 11.7904C20.4928 12.5742 21.0037 13.5894 21.1663 14.6859Z" stroke="#E0E0E0" stroke-width="1.5" stroke-linecap="round" stroke-linejoin="round"/>
</svg>
