<svg width="101" height="101" viewBox="0 0 101 101" fill="none" xmlns="http://www.w3.org/2000/svg">
<g id="mdi:google-maps">
<path id="Vector" d="M76.6247 25.5221C80.8331 34.5638 79.8747 45.2305 75.2497 53.8971C71.3331 60.9388 65.7081 66.8971 60.9164 73.4388C58.8331 76.3555 56.7497 79.4805 55.2081 82.8555C54.6664 83.9805 54.2914 85.1471 53.8747 86.3138C53.4581 87.4805 53.0831 88.6471 52.7081 89.8138C52.3331 90.8971 51.8747 92.1888 50.4997 92.1888C48.8747 92.1888 48.4164 90.3555 48.0831 89.1055C47.0831 86.0638 46.0831 83.1471 44.5414 80.3555C42.7914 77.0638 40.5831 74.0221 38.3331 71.0638L76.6247 25.5221ZM38.4997 35.6055L24.7497 51.9388C27.2914 57.3138 31.0831 61.8971 34.7081 66.4805C35.5831 67.5221 36.4581 68.6055 37.2914 69.7305L54.6664 49.1471L54.4997 49.1888C48.4164 51.2721 41.6664 48.1888 39.2497 42.1888C38.9164 41.4805 38.6664 40.6471 38.4997 39.8138C38.2666 38.4347 38.2666 37.0262 38.4997 35.6471V35.6055ZM27.9164 19.7721L27.8747 19.8138C21.1247 28.3555 19.9581 40.2305 23.9997 50.2721L40.6247 30.5221L40.4164 30.3138L27.9164 19.7721ZM59.7497 10.3555L46.3331 26.2305L46.4997 26.1888C52.0831 24.2721 58.3331 26.6888 61.1664 31.7721C61.7914 32.9388 62.2914 34.1888 62.4581 35.4388C62.7081 37.0221 62.7914 38.1471 62.4997 39.6888V39.7305L75.8331 23.8971C72.344 17.5643 66.6271 12.7532 59.7914 10.3971L59.7497 10.3555ZM41.7081 29.2305L57.9997 9.85547L57.8331 9.8138C55.4164 9.1888 52.9581 8.85547 50.4997 8.85547C42.2914 8.85547 34.5414 12.3971 29.0414 18.4805L28.9581 18.5221L41.7081 29.2305Z" fill="#F3F5F5"/>
</g>
</svg>
