<svg width="40" height="39" viewBox="0 0 40 39" fill="none" xmlns="http://www.w3.org/2000/svg">
<path d="M34.9336 16.4468C34.9336 27.5301 20.3086 37.0301 20.3086 37.0301C20.3086 37.0301 5.68359 27.5301 5.68359 16.4468C5.68359 12.6674 7.22444 9.0429 9.96716 6.37051C12.7099 3.69811 16.4298 2.19678 20.3086 2.19678C24.1874 2.19678 27.9073 3.69811 30.65 6.37051C33.3927 9.0429 34.9336 12.6674 34.9336 16.4468Z" stroke="#E0E0E0" stroke-width="1.5" stroke-linecap="round" stroke-linejoin="round"/>
<path d="M20.3086 21.1968C23.001 21.1968 25.1836 19.0701 25.1836 16.4468C25.1836 13.8234 23.001 11.6968 20.3086 11.6968C17.6162 11.6968 15.4336 13.8234 15.4336 16.4468C15.4336 19.0701 17.6162 21.1968 20.3086 21.1968Z" stroke="#E0E0E0" stroke-width="1.5" stroke-linecap="round" stroke-linejoin="round"/>
</svg>
