<svg width="39" height="46" viewBox="0 0 39 46" fill="none" xmlns="http://www.w3.org/2000/svg">
<path d="M37.875 19.1348C37.875 33.1348 19.5 45.1348 19.5 45.1348C19.5 45.1348 1.125 33.1348 1.125 19.1348C1.125 14.3609 3.06093 9.7825 6.50691 6.40684C9.95289 3.03119 14.6266 1.13477 19.5 1.13477C24.3734 1.13477 29.0471 3.03119 32.4931 6.40684C35.9391 9.7825 37.875 14.3609 37.875 19.1348Z" stroke="#2D2D2D" stroke-width="1.5" stroke-linecap="round" stroke-linejoin="round"/>
<path d="M19.5 25.1348C22.8827 25.1348 25.625 22.4485 25.625 19.1348C25.625 15.8211 22.8827 13.1348 19.5 13.1348C16.1173 13.1348 13.375 15.8211 13.375 19.1348C13.375 22.4485 16.1173 25.1348 19.5 25.1348Z" stroke="#2D2D2D" stroke-width="1.5" stroke-linecap="round" stroke-linejoin="round"/>
</svg>
