<svg width="35" height="35" viewBox="0 0 35 35" fill="none" xmlns="http://www.w3.org/2000/svg">
<path d="M31.9756 24.5831V28.8331C31.9772 29.2276 31.8964 29.6182 31.7383 29.9797C31.5803 30.3412 31.3485 30.6657 31.0577 30.9324C30.767 31.1991 30.4238 31.4022 30.05 31.5286C29.6763 31.655 29.2802 31.7019 28.8873 31.6664C24.528 31.1928 20.3405 29.7031 16.6614 27.3173C13.2385 25.1422 10.3365 22.2402 8.16145 18.8173C5.76725 15.1215 4.27729 10.9137 3.81228 6.53476C3.77688 6.143 3.82344 5.74817 3.94899 5.37539C4.07454 5.00262 4.27634 4.66007 4.54153 4.36956C4.80672 4.07904 5.1295 3.84693 5.48932 3.688C5.84913 3.52907 6.2381 3.4468 6.63145 3.44643H10.8814C11.569 3.43966 12.2355 3.68312 12.7568 4.13143C13.2781 4.57974 13.6186 5.20231 13.7148 5.88309C13.8942 7.24319 14.2268 8.57862 14.7064 9.86393C14.897 10.371 14.9383 10.9221 14.8253 11.4518C14.7123 11.9816 14.4498 12.4679 14.0689 12.8531L12.2698 14.6523C14.2865 18.1989 17.2231 21.1356 20.7698 23.1523L22.5689 21.3531C22.9541 20.9722 23.4404 20.7097 23.9702 20.5967C24.5 20.4837 25.0511 20.525 25.5581 20.7156C26.8434 21.1952 28.1789 21.5279 29.5389 21.7073C30.2271 21.8043 30.8556 22.151 31.3049 22.6812C31.7541 23.2115 31.9929 23.8883 31.9756 24.5831Z" stroke="#E0E0E0" stroke-width="1.5" stroke-linecap="round" stroke-linejoin="round"/>
</svg>
